<svg class="SVGInline-svg SVG-component__content-svg" xmlns="http://www.w3.org/2000/svg" viewBox="0 0 20 20" fill="none"><path d="M10.7668 1.00586C10.5749 0.970393 10.1679 0.915487 9.86223 0.883766C9.55656 0.852102 9.23054 0.82961 9.13776 0.83382C9.04497 0.83803 8.76377 0.863924 8.5129 0.891435C8.26202 0.918889 7.89164 0.981122 7.68981 1.0298C7.48803 1.07842 7.08959 1.19815 6.80436 1.29586C6.5192 1.39356 6.05972 1.58735 5.78335 1.72657C5.50704 1.86574 5.27156 1.97965 5.26013 1.97965C5.24875 1.97965 5.23942 1.90052 5.23942 1.80374C5.23942 1.70702 5.20202 1.55015 5.1563 1.45515C5.11063 1.36016 4.9959 1.23178 4.9014 1.16989C4.75044 1.07092 4.62808 1.05725 3.89236 1.05708C3.10876 1.05685 3.0434 1.06533 2.87275 1.18875C2.77246 1.26131 2.65418 1.39759 2.6099 1.49155C2.5418 1.63614 2.52716 2.15504 2.51471 4.86613L2.5 8.06981L2.62337 8.32058C2.69592 8.46812 2.82349 8.61629 2.93323 8.68059C3.09878 8.77755 3.21952 8.78798 4.0095 8.77316C4.88588 8.75672 4.90225 8.75413 5.09185 8.59852C5.20658 8.5044 5.31042 8.35288 5.34879 8.22363C5.3842 8.1043 5.47249 7.87695 5.54499 7.71834C5.61749 7.55973 5.72926 7.36848 5.7935 7.29327C5.85768 7.21812 6.00026 7.09487 6.11038 7.01937C6.22044 6.94388 6.474 6.85275 6.67384 6.81688C6.96872 6.76387 7.13825 6.76877 7.57379 6.84271C7.86894 6.89278 8.53302 7.02924 9.04954 7.14591C9.89935 7.33786 10.0729 7.35862 10.8741 7.36427C11.6471 7.36969 11.8141 7.35372 12.1889 7.23842C12.425 7.16581 12.8065 7.00432 13.0367 6.87957L13.4552 6.65279L13.1995 7.01251C13.0589 7.21039 12.7453 7.58494 12.5026 7.84476C12.26 8.10465 11.8244 8.51991 11.5346 8.76757C11.2449 9.01528 10.757 9.41255 10.4504 9.65046C10.1438 9.88837 9.63682 10.3062 9.3237 10.579C9.01057 10.8517 8.58401 11.2683 8.37574 11.5045C8.16753 11.7408 7.88466 12.1036 7.74712 12.3107C7.60964 12.5178 7.38934 12.9189 7.25765 13.2019C7.12591 13.485 6.95499 13.9192 6.87777 14.1668C6.80055 14.4144 6.68941 14.8556 6.63081 15.1473C6.57221 15.4389 6.48945 16.0798 6.4469 16.5715C6.40434 17.0632 6.36931 17.6861 6.3691 17.9557C6.36883 18.3167 6.39587 18.5102 6.47175 18.6898C6.53121 18.8307 6.6498 18.983 6.7523 19.0501C6.92445 19.1629 7.01645 19.1665 9.79273 19.1666C12.231 19.1668 12.6807 19.154 12.8247 19.0801C12.9177 19.0324 13.0481 18.9075 13.1145 18.8026C13.2311 18.6185 13.2353 18.5654 13.2357 17.2889C13.236 16.4587 13.2654 15.7296 13.3146 15.3315C13.3578 14.9825 13.4167 14.5642 13.4456 14.4019C13.4745 14.2396 13.5592 13.848 13.6338 13.5318C13.7083 13.2156 13.8398 12.7255 13.926 12.4427C14.0121 12.16 14.2228 11.5523 14.3939 11.0923C14.5652 10.6324 14.9861 9.65911 15.3293 8.92952C15.6725 8.19993 16.2435 7.05796 16.598 6.39181C16.9526 5.72566 17.4881 4.70879 17.788 4.13209C18.2739 3.19787 18.3333 3.05247 18.3333 2.79893C18.3333 2.5947 18.3 2.4673 18.2154 2.34791C18.1505 2.25638 17.9537 1.99984 17.7779 1.77779C17.6021 1.55574 17.3863 1.30439 17.2983 1.21921C17.2104 1.13408 17.0487 1.04808 16.9391 1.02818C16.7995 1.00286 16.6449 1.02945 16.423 1.11695C16.2488 1.18564 15.889 1.32071 15.6233 1.41709C15.1696 1.58175 15.0884 1.59271 14.2817 1.59854C13.7508 1.6024 13.2798 1.57466 13.0475 1.52592C12.8409 1.48261 12.3217 1.36236 11.8937 1.25871C11.4657 1.15507 10.9586 1.04128 10.7668 1.00586Z" fill="#ffb3c7b5"></path></svg>